<?xml version="1.0" encoding="utf-8"?>
<!-- Svg Vector Icons : http://www.onlinewebfonts.com/icon -->
<!DOCTYPE svg PUBLIC "-//W3C//DTD SVG 1.1//EN" "http://www.w3.org/Graphics/SVG/1.1/DTD/svg11.dtd">
<svg version="1.1" xmlns="http://www.w3.org/2000/svg" xmlns:xlink="http://www.w3.org/1999/xlink" x="0px" y="0px" viewBox="0 0 1000 1000" enable-background="new 0 0 1000 1000" xml:space="preserve">
<metadata> Svg Vector Icons : http://www.onlinewebfonts.com/icon </metadata>
<g><g transform="translate(0.000000,511.000000) scale(0.100000,-0.100000)"><path d="M588.9,4115.9C376.2,4039.1,260,3938.3,152.6,3730l-52.6-98.7V814.1v-2817.2l54.8-109.6c68-140.3,199.5-271.9,339.8-339.8l109.6-54.8H5000h4395.8l111.8,59.2c166.6,87.7,234.6,153.5,317.9,306.9l74.6,138.1V814.1v2817.2l-54.8,109.6c-68,140.3-199.5,271.9-339.8,339.8l-109.6,54.8l-4362.9,4.4C1481.2,4144.4,654.7,4140,588.9,4115.9z M8858.6,989.5v-2104.7H5000H1141.4V989.5v2104.7H5000h3858.6V989.5z"/><path d="M3947.7,989.5V-418l50.4,30.7c26.3,17.5,574.4,331,1216.8,697.2C5855,676,6381.2,982.9,6381.2,989.5S5855,1303,5214.8,1669.1c-642.4,366.1-1190.5,679.6-1216.8,697.2l-50.4,30.7V989.5z"/><path d="M2193.7-3570.7v-350.8H5000h2806.3v350.8v350.8H5000H2193.7V-3570.7z"/></g></g>
</svg>